<?xml version="1.0" standalone="no"?>
<!DOCTYPE svg PUBLIC "-//W3C//DTD SVG 20010904//EN"
 "http://www.w3.org/TR/2001/REC-SVG-20010904/DTD/svg10.dtd">
<svg version="1.0" xmlns="http://www.w3.org/2000/svg"
 width="1200.000000pt" height="1190.000000pt" viewBox="0 0 1200.000000 1190.000000"
 preserveAspectRatio="xMidYMid meet">

<g transform="translate(0.000000,1190.000000) scale(0.100000,-0.100000)"
fill="#000000" stroke="none">
<path d="M4030 6021 l0 -4781 720 0 720 0 0 1454 0 1454 173 6 c478 19 721 51
1002 133 321 93 591 232 812 417 387 323 644 759 808 1366 123 459 160 870
152 1701 -5 535 -11 638 -58 933 -75 470 -265 930 -509 1236 -192 241 -496
472 -780 595 -211 92 -541 183 -775 215 -304 40 -370 43 -1327 47 l-938 4 0
-4780z m1780 3724 c492 -52 765 -210 926 -535 85 -172 134 -351 169 -614 39
-288 45 -1442 11 -1856 -75 -889 -314 -1298 -851 -1458 -123 -36 -392 -70
-572 -72 l-23 0 0 2275 0 2275 103 0 c56 0 163 -7 237 -15z"/>
</g>
</svg>
